<?xml version="1.0" encoding="UTF-8" standalone="no"?>
<!DOCTYPE svg PUBLIC "-//W3C//DTD SVG 1.1//EN"
 "http://www.w3.org/Graphics/SVG/1.1/DTD/svg11.dtd">
<!-- Generated by graphviz version 2.40.1 (20161225.0304)
 -->
<!-- Title: dependencies Pages: 1 -->
<svg width="536pt" height="290pt"
 viewBox="0.00 0.00 536.00 290.00" xmlns="http://www.w3.org/2000/svg" xmlns:xlink="http://www.w3.org/1999/xlink">
<g id="graph0" class="graph" transform="scale(1 1) rotate(0) translate(4 286)">
<title>dependencies</title>
<polygon fill="#ffffff" stroke="transparent" points="-4,4 -4,-286 532,-286 532,4 -4,4"/>
<text text-anchor="start" x="243.0091" y="-42.4" font-family="sans-serif" font-weight="bold" font-size="14.00" fill="#000000">Legend</text>
<polygon fill="#ffffb3" stroke="transparent" points="30,-10 30,-30 50,-30 50,-10 30,-10"/>
<text text-anchor="start" x="53.629" y="-15.4" font-family="sans-serif" font-size="14.00" fill="#000000"> &#160;Declarations</text>
<polygon fill="#8dd3c7" stroke="transparent" points="143,-10 143,-30 163,-30 163,-10 143,-10"/>
<text text-anchor="start" x="166.7251" y="-15.4" font-family="sans-serif" font-size="14.00" fill="#000000"> &#160;Module</text>
<polygon fill="#80b1d3" stroke="transparent" points="229,-10 229,-30 249,-30 249,-10 229,-10"/>
<text text-anchor="start" x="252.7812" y="-15.4" font-family="sans-serif" font-size="14.00" fill="#000000"> &#160;Bootstrap</text>
<polygon fill="#fdb462" stroke="transparent" points="326,-10 326,-30 346,-30 346,-10 326,-10"/>
<text text-anchor="start" x="349.6732" y="-15.4" font-family="sans-serif" font-size="14.00" fill="#000000"> &#160;Providers</text>
<polygon fill="#fb8072" stroke="transparent" points="422,-10 422,-30 442,-30 442,-10 422,-10"/>
<text text-anchor="start" x="445.7258" y="-15.4" font-family="sans-serif" font-size="14.00" fill="#000000"> &#160;Exports</text>
<g id="clust1" class="cluster">
<title>cluster_AppModule</title>
<polygon fill="none" stroke="#000000" stroke-dasharray="1,5" points="8,-70 8,-274 272,-274 272,-70 8,-70"/>
</g>
<g id="clust2" class="cluster">
<title>cluster_AppModule_declarations</title>
<polygon fill="none" stroke="#000000" points="16,-78 16,-130 138,-130 138,-78 16,-78"/>
</g>
<g id="clust4" class="cluster">
<title>cluster_AppModule_imports</title>
<polygon fill="none" stroke="#000000" points="146,-78 146,-130 264,-130 264,-78 146,-78"/>
</g>
<g id="clust6" class="cluster">
<title>cluster_AppModule_bootstrap</title>
<polygon fill="none" stroke="#000000" points="78,-214 78,-266 202,-266 202,-214 78,-214"/>
</g>
<g id="clust8" class="cluster">
<title>cluster_SampleModule</title>
<polygon fill="none" stroke="#000000" stroke-dasharray="1,5" points="280,-138 280,-206 520,-206 520,-138 280,-138"/>
</g>
<g id="clust9" class="cluster">
<title>cluster_SampleModule_declarations</title>
<polygon fill="none" stroke="#000000" points="406,-146 406,-198 512,-198 512,-146 406,-146"/>
</g>
<g id="clust12" class="cluster">
<title>cluster_SampleModule_exports</title>
<polygon fill="none" stroke="#000000" points="288,-146 288,-198 398,-198 398,-146 288,-146"/>
</g>
<g id="clust15" class="cluster">
<title>cluster_TruncateModule</title>
<polygon fill="none" stroke="#000000" stroke-dasharray="1,5" points="337,-214 337,-266 463,-266 463,-214 337,-214"/>
</g>
<!-- AppComponent -->
<g id="node1" class="node">
<title>AppComponent</title>
<polygon fill="#ffffb3" stroke="#000000" points="129.9399,-122 24.0601,-122 24.0601,-86 129.9399,-86 129.9399,-122"/>
<text text-anchor="middle" x="77" y="-99.8" font-family="Times,serif" font-size="14.00" fill="#000000">AppComponent</text>
</g>
<!-- AppModule -->
<g id="node2" class="node">
<title>AppModule</title>
<polygon fill="#8dd3c7" stroke="#000000" points="181.6571,-190 178.6571,-194 157.6571,-194 154.6571,-190 98.3429,-190 98.3429,-154 181.6571,-154 181.6571,-190"/>
<text text-anchor="middle" x="140" y="-167.8" font-family="Times,serif" font-size="14.00" fill="#000000">AppModule</text>
</g>
<!-- AppComponent&#45;&gt;AppModule -->
<g id="edge1" class="edge">
<title>AppComponent&#45;&gt;AppModule</title>
<path fill="none" stroke="#000000" d="M113.9457,-122.2228C113.9457,-122.2228 113.9457,-143.7269 113.9457,-143.7269"/>
<polygon fill="#000000" stroke="#000000" points="110.4457,-143.7269 113.9457,-153.7269 117.4457,-143.727 110.4457,-143.7269"/>
</g>
<!-- AppComponent  -->
<g id="node4" class="node">
<title>AppComponent </title>
<polygon fill="#80b1d3" stroke="#000000" points="194.439,-258 85.561,-258 85.561,-222 194.439,-222 194.439,-258"/>
<text text-anchor="middle" x="140" y="-235.8" font-family="Times,serif" font-size="14.00" fill="#000000">AppComponent </text>
</g>
<!-- AppModule&#45;&gt;AppComponent  -->
<g id="edge3" class="edge">
<title>AppModule&#45;&gt;AppComponent </title>
<path fill="none" stroke="#000000" stroke-dasharray="1,5" d="M140,-190.2228C140,-190.2228 140,-211.7269 140,-211.7269"/>
<polygon fill="#000000" stroke="#000000" points="136.5001,-211.7269 140,-221.7269 143.5001,-211.727 136.5001,-211.7269"/>
</g>
<!-- SampleModule -->
<g id="node3" class="node">
<title>SampleModule</title>
<polygon fill="#8dd3c7" stroke="#000000" points="255.5438,-122 252.5438,-126 231.5438,-126 228.5438,-122 154.4562,-122 154.4562,-86 255.5438,-86 255.5438,-122"/>
<text text-anchor="middle" x="205" y="-99.8" font-family="Times,serif" font-size="14.00" fill="#000000">SampleModule</text>
</g>
<!-- SampleModule&#45;&gt;AppModule -->
<g id="edge2" class="edge">
<title>SampleModule&#45;&gt;AppModule</title>
<path fill="none" stroke="#000000" d="M168.0284,-122.2228C168.0284,-122.2228 168.0284,-143.7269 168.0284,-143.7269"/>
<polygon fill="#000000" stroke="#000000" points="164.5285,-143.7269 168.0284,-153.7269 171.5285,-143.727 164.5285,-143.7269"/>
</g>
<!-- TruncatePipe  -->
<g id="node6" class="node">
<title>TruncatePipe </title>
<polygon fill="#fb8072" stroke="#000000" points="390.1355,-190 295.8645,-190 295.8645,-154 390.1355,-154 390.1355,-190"/>
<text text-anchor="middle" x="343" y="-167.8" font-family="Times,serif" font-size="14.00" fill="#000000">TruncatePipe </text>
</g>
<!-- SampleModule&#45;&gt;TruncatePipe  -->
<g id="edge5" class="edge">
<title>SampleModule&#45;&gt;TruncatePipe </title>
<path fill="none" stroke="#000000" stroke-dasharray="5,2" d="M225.1205,-122.2228C225.1205,-142.3652 225.1205,-172 225.1205,-172 225.1205,-172 285.7331,-172 285.7331,-172"/>
<polygon fill="#000000" stroke="#000000" points="285.7331,-175.5001 295.7331,-172 285.7331,-168.5001 285.7331,-175.5001"/>
</g>
<!-- TruncatePipe -->
<g id="node5" class="node">
<title>TruncatePipe</title>
<polygon fill="#ffffb3" stroke="#000000" points="504.1361,-190 413.8639,-190 413.8639,-154 504.1361,-154 504.1361,-190"/>
<text text-anchor="middle" x="459" y="-167.8" font-family="Times,serif" font-size="14.00" fill="#000000">TruncatePipe</text>
</g>
<!-- TruncatePipe&#45;&gt;SampleModule -->
<g id="edge4" class="edge">
<title>TruncatePipe&#45;&gt;SampleModule</title>
<path fill="none" stroke="#000000" d="M459,-153.7772C459,-133.6348 459,-104 459,-104 459,-104 265.7902,-104 265.7902,-104"/>
<polygon fill="#000000" stroke="#000000" points="265.7903,-100.5001 255.7902,-104 265.7902,-107.5001 265.7903,-100.5001"/>
</g>
<!-- TruncateModule -->
<g id="node7" class="node">
<title>TruncateModule</title>
<polygon fill="#8dd3c7" stroke="#000000" points="454.7978,-258 451.7978,-262 430.7978,-262 427.7978,-258 345.2022,-258 345.2022,-222 454.7978,-222 454.7978,-258"/>
<text text-anchor="middle" x="400" y="-235.8" font-family="Times,serif" font-size="14.00" fill="#000000">TruncateModule</text>
</g>
<!-- TruncatePipe&#45;&gt;TruncateModule -->
<g id="edge6" class="edge">
<title>TruncatePipe&#45;&gt;TruncateModule</title>
<path fill="none" stroke="#000000" d="M434.1655,-190.2228C434.1655,-190.2228 434.1655,-211.7269 434.1655,-211.7269"/>
<polygon fill="#000000" stroke="#000000" points="430.6656,-211.7269 434.1655,-221.7269 437.6656,-211.727 430.6656,-211.7269"/>
</g>
<!-- TruncateModule&#45;&gt;TruncatePipe  -->
<g id="edge7" class="edge">
<title>TruncateModule&#45;&gt;TruncatePipe </title>
<path fill="none" stroke="#000000" stroke-dasharray="5,2" d="M367.7095,-221.7772C367.7095,-221.7772 367.7095,-200.2731 367.7095,-200.2731"/>
<polygon fill="#000000" stroke="#000000" points="371.2096,-200.273 367.7095,-190.2731 364.2096,-200.2731 371.2096,-200.273"/>
</g>
</g>
</svg>
