<?xml version="1.0" encoding="UTF-8" standalone="no"?>
<!DOCTYPE svg PUBLIC "-//W3C//DTD SVG 1.1//EN"
 "http://www.w3.org/Graphics/SVG/1.1/DTD/svg11.dtd">
<!-- Generated by graphviz version 2.40.1 (20161225.0304)
 -->
<!-- Title: dependencies Pages: 1 -->
<svg width="504pt" height="284pt"
 viewBox="0.00 0.00 504.00 284.00" xmlns="http://www.w3.org/2000/svg" xmlns:xlink="http://www.w3.org/1999/xlink">
<g id="graph0" class="graph" transform="scale(1 1) rotate(0) translate(4 280)">
<title>dependencies</title>
<polygon fill="#ffffff" stroke="transparent" points="-4,4 -4,-280 500,-280 500,4 -4,4"/>
<text text-anchor="start" x="227.0091" y="-42.4" font-family="sans-serif" font-weight="bold" font-size="14.00" fill="#000000">Legend</text>
<polygon fill="#ffffb3" stroke="transparent" points="14,-10 14,-30 34,-30 34,-10 14,-10"/>
<text text-anchor="start" x="37.629" y="-15.4" font-family="sans-serif" font-size="14.00" fill="#000000"> &#160;Declarations</text>
<polygon fill="#8dd3c7" stroke="transparent" points="127,-10 127,-30 147,-30 147,-10 127,-10"/>
<text text-anchor="start" x="150.7251" y="-15.4" font-family="sans-serif" font-size="14.00" fill="#000000"> &#160;Module</text>
<polygon fill="#80b1d3" stroke="transparent" points="213,-10 213,-30 233,-30 233,-10 213,-10"/>
<text text-anchor="start" x="236.7812" y="-15.4" font-family="sans-serif" font-size="14.00" fill="#000000"> &#160;Bootstrap</text>
<polygon fill="#fdb462" stroke="transparent" points="310,-10 310,-30 330,-30 330,-10 310,-10"/>
<text text-anchor="start" x="333.6732" y="-15.4" font-family="sans-serif" font-size="14.00" fill="#000000"> &#160;Providers</text>
<polygon fill="#fb8072" stroke="transparent" points="406,-10 406,-30 426,-30 426,-10 406,-10"/>
<text text-anchor="start" x="429.7258" y="-15.4" font-family="sans-serif" font-size="14.00" fill="#000000"> &#160;Exports</text>
<g id="clust1" class="cluster">
<title>cluster_NgxCleverModule</title>
<polygon fill="none" stroke="#000000" stroke-dasharray="1,5" points="106.5,-70 106.5,-268 389.5,-268 389.5,-70 106.5,-70"/>
</g>
<g id="clust2" class="cluster">
<title>cluster_NgxCleverModule_declarations</title>
<polygon fill="none" stroke="#000000" points="114.5,-78 114.5,-130 381.5,-130 381.5,-78 114.5,-78"/>
</g>
<g id="clust6" class="cluster">
<title>cluster_NgxCleverModule_exports</title>
<polygon fill="none" stroke="#000000" points="166.5,-208 166.5,-260 328.5,-260 328.5,-208 166.5,-208"/>
</g>
<!-- NgxCleverComponent -->
<g id="node1" class="node">
<title>NgxCleverComponent</title>
<polygon fill="#ffffb3" stroke="#000000" points="373.7562,-122 231.2438,-122 231.2438,-86 373.7562,-86 373.7562,-122"/>
<text text-anchor="middle" x="302.5" y="-99.8" font-family="Times,serif" font-size="14.00" fill="#000000">NgxCleverComponent</text>
</g>
<!-- NgxCleverModule -->
<g id="node3" class="node">
<title>NgxCleverModule</title>
<polygon fill="#8dd3c7" stroke="#000000" points="307.9734,-187 304.9734,-191 283.9734,-191 280.9734,-187 187.0266,-187 187.0266,-151 307.9734,-151 307.9734,-187"/>
<text text-anchor="middle" x="247.5" y="-164.8" font-family="Times,serif" font-size="14.00" fill="#000000">NgxCleverModule</text>
</g>
<!-- NgxCleverComponent&#45;&gt;NgxCleverModule -->
<g id="edge1" class="edge">
<title>NgxCleverComponent&#45;&gt;NgxCleverModule</title>
<path fill="none" stroke="#000000" d="M269.5544,-122.1061C269.5544,-122.1061 269.5544,-140.991 269.5544,-140.991"/>
<polygon fill="#000000" stroke="#000000" points="266.0544,-140.9909 269.5544,-150.991 273.0544,-140.991 266.0544,-140.9909"/>
</g>
<!-- TruncatePipe -->
<g id="node2" class="node">
<title>TruncatePipe</title>
<polygon fill="#ffffb3" stroke="#000000" points="212.6361,-122 122.3639,-122 122.3639,-86 212.6361,-86 212.6361,-122"/>
<text text-anchor="middle" x="167.5" y="-99.8" font-family="Times,serif" font-size="14.00" fill="#000000">TruncatePipe</text>
</g>
<!-- TruncatePipe&#45;&gt;NgxCleverModule -->
<g id="edge2" class="edge">
<title>TruncatePipe&#45;&gt;NgxCleverModule</title>
<path fill="none" stroke="#000000" d="M199.9155,-122.1061C199.9155,-122.1061 199.9155,-140.991 199.9155,-140.991"/>
<polygon fill="#000000" stroke="#000000" points="196.4156,-140.9909 199.9155,-150.991 203.4156,-140.991 196.4156,-140.9909"/>
</g>
<!-- NgxCleverComponent  -->
<g id="node4" class="node">
<title>NgxCleverComponent </title>
<polygon fill="#fb8072" stroke="#000000" points="320.7562,-252 174.2438,-252 174.2438,-216 320.7562,-216 320.7562,-252"/>
<text text-anchor="middle" x="247.5" y="-229.8" font-family="Times,serif" font-size="14.00" fill="#000000">NgxCleverComponent </text>
</g>
<!-- NgxCleverModule&#45;&gt;NgxCleverComponent  -->
<g id="edge3" class="edge">
<title>NgxCleverModule&#45;&gt;NgxCleverComponent </title>
<path fill="none" stroke="#000000" stroke-dasharray="5,2" d="M247.5,-187.1061C247.5,-187.1061 247.5,-205.991 247.5,-205.991"/>
<polygon fill="#000000" stroke="#000000" points="244.0001,-205.9909 247.5,-215.991 251.0001,-205.991 244.0001,-205.9909"/>
</g>
</g>
</svg>
